<?xml version="1.0" encoding="UTF-8"?>
<svg xmlns="http://www.w3.org/2000/svg" xmlns:xlink="http://www.w3.org/1999/xlink" width="171.674pt" height="120.65pt" viewBox="0 0 171.674 120.65" version="1.1">
<defs>
<clipPath id="clip1">
  <path d="M 51 102 L 70 102 L 70 120.648438 L 51 120.648438 Z M 51 102 "/>
</clipPath>
<clipPath id="clip2">
  <path d="M 68 102 L 87 102 L 87 120.648438 L 68 120.648438 Z M 68 102 "/>
</clipPath>
<clipPath id="clip3">
  <path d="M 85 102 L 104 102 L 104 120.648438 L 85 120.648438 Z M 85 102 "/>
</clipPath>
<clipPath id="clip4">
  <path d="M 153 0 L 171.675781 0 L 171.675781 19 L 153 19 Z M 153 0 "/>
</clipPath>
<clipPath id="clip5">
  <path d="M 153 17 L 171.675781 17 L 171.675781 36 L 153 36 Z M 153 17 "/>
</clipPath>
<clipPath id="clip6">
  <path d="M 153 34 L 171.675781 34 L 171.675781 53 L 153 53 Z M 153 34 "/>
</clipPath>
</defs>
<g id="surface1">
<path style="fill-rule:nonzero;fill:rgb(100%,50%,0%);fill-opacity:1;stroke-width:1.59404;stroke-linecap:round;stroke-linejoin:round;stroke:rgb(0%,0%,0%);stroke-opacity:1;stroke-miterlimit:10;" d="M -0.0006875 34.0165 L -0.0006875 51.024312 L 17.007125 51.024312 L 17.007125 34.0165 Z M -0.0006875 34.0165 " transform="matrix(1,0,0,-1,51.821,68.829)"/>
<path style="fill-rule:nonzero;fill:rgb(100%,50%,0%);fill-opacity:1;stroke-width:1.59404;stroke-linecap:round;stroke-linejoin:round;stroke:rgb(0%,0%,0%);stroke-opacity:1;stroke-miterlimit:10;" d="M 17.007125 34.0165 L 17.007125 51.024312 L 34.014938 51.024312 L 34.014938 34.0165 Z M 17.007125 34.0165 " transform="matrix(1,0,0,-1,51.821,68.829)"/>
<path style="fill-rule:nonzero;fill:rgb(100%,50%,0%);fill-opacity:1;stroke-width:1.59404;stroke-linecap:round;stroke-linejoin:round;stroke:rgb(0%,0%,0%);stroke-opacity:1;stroke-miterlimit:10;" d="M 34.014938 34.0165 L 34.014938 51.024312 L 51.026656 51.024312 L 51.026656 34.0165 Z M 34.014938 34.0165 " transform="matrix(1,0,0,-1,51.821,68.829)"/>
<path style="fill-rule:nonzero;fill:rgb(100%,50%,0%);fill-opacity:1;stroke-width:1.59404;stroke-linecap:round;stroke-linejoin:round;stroke:rgb(0%,0%,0%);stroke-opacity:1;stroke-miterlimit:10;" d="M -0.0006875 17.008687 L -0.0006875 34.0165 L 17.007125 34.0165 L 17.007125 17.008687 Z M -0.0006875 17.008687 " transform="matrix(1,0,0,-1,51.821,68.829)"/>
<path style="fill-rule:nonzero;fill:rgb(100%,50%,0%);fill-opacity:1;stroke-width:1.59404;stroke-linecap:round;stroke-linejoin:round;stroke:rgb(0%,0%,0%);stroke-opacity:1;stroke-miterlimit:10;" d="M 17.007125 17.008687 L 17.007125 34.0165 L 34.014938 34.0165 L 34.014938 17.008687 Z M 17.007125 17.008687 " transform="matrix(1,0,0,-1,51.821,68.829)"/>
<path style="fill-rule:nonzero;fill:rgb(100%,50%,0%);fill-opacity:1;stroke-width:1.59404;stroke-linecap:round;stroke-linejoin:round;stroke:rgb(0%,0%,0%);stroke-opacity:1;stroke-miterlimit:10;" d="M 34.014938 17.008687 L 34.014938 34.0165 L 51.026656 34.0165 L 51.026656 17.008687 Z M 34.014938 17.008687 " transform="matrix(1,0,0,-1,51.821,68.829)"/>
<path style="fill-rule:nonzero;fill:rgb(100%,50%,0%);fill-opacity:1;stroke-width:1.59404;stroke-linecap:round;stroke-linejoin:round;stroke:rgb(0%,0%,0%);stroke-opacity:1;stroke-miterlimit:10;" d="M -0.0006875 0.000875 L -0.0006875 17.008687 L 17.007125 17.008687 L 17.007125 0.000875 Z M -0.0006875 0.000875 " transform="matrix(1,0,0,-1,51.821,68.829)"/>
<path style="fill-rule:nonzero;fill:rgb(100%,50%,0%);fill-opacity:1;stroke-width:1.59404;stroke-linecap:round;stroke-linejoin:round;stroke:rgb(0%,0%,0%);stroke-opacity:1;stroke-miterlimit:10;" d="M 17.007125 0.000875 L 17.007125 17.008687 L 34.014938 17.008687 L 34.014938 0.000875 Z M 17.007125 0.000875 " transform="matrix(1,0,0,-1,51.821,68.829)"/>
<path style="fill-rule:nonzero;fill:rgb(100%,50%,0%);fill-opacity:1;stroke-width:1.59404;stroke-linecap:round;stroke-linejoin:round;stroke:rgb(0%,0%,0%);stroke-opacity:1;stroke-miterlimit:10;" d="M 34.014938 0.000875 L 34.014938 17.008687 L 51.026656 17.008687 L 51.026656 0.000875 Z M 34.014938 0.000875 " transform="matrix(1,0,0,-1,51.821,68.829)"/>
<path style="fill-rule:nonzero;fill:rgb(100%,100%,100%);fill-opacity:1;stroke-width:1.59404;stroke-linecap:round;stroke-linejoin:round;stroke:rgb(0%,0%,0%);stroke-opacity:1;stroke-miterlimit:10;" d="M 11.225875 62.250875 L 17.007125 68.032125 L 34.014938 68.032125 L 28.233688 62.250875 Z M 11.225875 62.250875 " transform="matrix(1,0,0,-1,51.821,68.829)"/>
<path style="fill-rule:nonzero;fill:rgb(100%,100%,100%);fill-opacity:1;stroke-width:1.59404;stroke-linecap:round;stroke-linejoin:round;stroke:rgb(0%,0%,0%);stroke-opacity:1;stroke-miterlimit:10;" d="M 28.233688 62.250875 L 34.014938 68.032125 L 51.026656 68.032125 L 45.2415 62.250875 Z M 28.233688 62.250875 " transform="matrix(1,0,0,-1,51.821,68.829)"/>
<path style="fill-rule:nonzero;fill:rgb(100%,100%,100%);fill-opacity:1;stroke-width:1.59404;stroke-linecap:round;stroke-linejoin:round;stroke:rgb(0%,0%,0%);stroke-opacity:1;stroke-miterlimit:10;" d="M 45.2415 62.250875 L 51.026656 68.032125 L 68.034469 68.032125 L 62.249313 62.250875 Z M 45.2415 62.250875 " transform="matrix(1,0,0,-1,51.821,68.829)"/>
<path style="fill-rule:nonzero;fill:rgb(100%,100%,100%);fill-opacity:1;stroke-width:1.59404;stroke-linecap:round;stroke-linejoin:round;stroke:rgb(0%,0%,0%);stroke-opacity:1;stroke-miterlimit:10;" d="M 5.612594 56.637594 L 11.225875 62.250875 L 28.233688 62.250875 L 22.620406 56.637594 Z M 5.612594 56.637594 " transform="matrix(1,0,0,-1,51.821,68.829)"/>
<path style="fill-rule:nonzero;fill:rgb(100%,100%,100%);fill-opacity:1;stroke-width:1.59404;stroke-linecap:round;stroke-linejoin:round;stroke:rgb(0%,0%,0%);stroke-opacity:1;stroke-miterlimit:10;" d="M 22.620406 56.637594 L 28.233688 62.250875 L 45.2415 62.250875 L 39.628219 56.637594 Z M 22.620406 56.637594 " transform="matrix(1,0,0,-1,51.821,68.829)"/>
<path style="fill-rule:nonzero;fill:rgb(100%,100%,100%);fill-opacity:1;stroke-width:1.59404;stroke-linecap:round;stroke-linejoin:round;stroke:rgb(0%,0%,0%);stroke-opacity:1;stroke-miterlimit:10;" d="M 39.628219 56.637594 L 45.2415 62.250875 L 62.249313 62.250875 L 56.636031 56.637594 Z M 39.628219 56.637594 " transform="matrix(1,0,0,-1,51.821,68.829)"/>
<path style="fill-rule:nonzero;fill:rgb(100%,100%,100%);fill-opacity:1;stroke-width:1.59404;stroke-linecap:round;stroke-linejoin:round;stroke:rgb(0%,0%,0%);stroke-opacity:1;stroke-miterlimit:10;" d="M -0.0006875 51.024312 L 5.612594 56.637594 L 22.620406 56.637594 L 17.007125 51.024312 Z M -0.0006875 51.024312 " transform="matrix(1,0,0,-1,51.821,68.829)"/>
<path style="fill-rule:nonzero;fill:rgb(100%,100%,100%);fill-opacity:1;stroke-width:1.59404;stroke-linecap:round;stroke-linejoin:round;stroke:rgb(0%,0%,0%);stroke-opacity:1;stroke-miterlimit:10;" d="M 17.007125 51.024312 L 22.620406 56.637594 L 39.628219 56.637594 L 34.014938 51.024312 Z M 17.007125 51.024312 " transform="matrix(1,0,0,-1,51.821,68.829)"/>
<path style="fill-rule:nonzero;fill:rgb(100%,100%,100%);fill-opacity:1;stroke-width:1.59404;stroke-linecap:round;stroke-linejoin:round;stroke:rgb(0%,0%,0%);stroke-opacity:1;stroke-miterlimit:10;" d="M 34.014938 51.024312 L 39.628219 56.637594 L 56.636031 56.637594 L 51.026656 51.024312 Z M 34.014938 51.024312 " transform="matrix(1,0,0,-1,51.821,68.829)"/>
<path style="fill-rule:nonzero;fill:rgb(0%,74.508667%,21.961975%);fill-opacity:1;stroke-width:1.59404;stroke-linecap:round;stroke-linejoin:round;stroke:rgb(0%,0%,0%);stroke-opacity:1;stroke-miterlimit:10;" d="M 51.026656 34.0165 L 51.026656 51.024312 L 56.636031 56.637594 L 56.636031 39.629781 Z M 51.026656 34.0165 " transform="matrix(1,0,0,-1,51.821,68.829)"/>
<path style="fill-rule:nonzero;fill:rgb(0%,74.508667%,21.961975%);fill-opacity:1;stroke-width:1.59404;stroke-linecap:round;stroke-linejoin:round;stroke:rgb(0%,0%,0%);stroke-opacity:1;stroke-miterlimit:10;" d="M 56.636031 39.629781 L 56.636031 56.637594 L 62.249313 62.250875 L 62.249313 45.243062 Z M 56.636031 39.629781 " transform="matrix(1,0,0,-1,51.821,68.829)"/>
<path style="fill-rule:nonzero;fill:rgb(0%,74.508667%,21.961975%);fill-opacity:1;stroke-width:1.59404;stroke-linecap:round;stroke-linejoin:round;stroke:rgb(0%,0%,0%);stroke-opacity:1;stroke-miterlimit:10;" d="M 62.249313 45.243062 L 62.249313 62.250875 L 68.034469 68.032125 L 68.034469 51.024312 Z M 62.249313 45.243062 " transform="matrix(1,0,0,-1,51.821,68.829)"/>
<path style="fill-rule:nonzero;fill:rgb(0%,74.508667%,21.961975%);fill-opacity:1;stroke-width:1.59404;stroke-linecap:round;stroke-linejoin:round;stroke:rgb(0%,0%,0%);stroke-opacity:1;stroke-miterlimit:10;" d="M 51.026656 17.008687 L 51.026656 34.0165 L 56.636031 39.629781 L 56.636031 22.621969 Z M 51.026656 17.008687 " transform="matrix(1,0,0,-1,51.821,68.829)"/>
<path style="fill-rule:nonzero;fill:rgb(0%,74.508667%,21.961975%);fill-opacity:1;stroke-width:1.59404;stroke-linecap:round;stroke-linejoin:round;stroke:rgb(0%,0%,0%);stroke-opacity:1;stroke-miterlimit:10;" d="M 56.636031 22.621969 L 56.636031 39.629781 L 62.249313 45.243062 L 62.249313 28.23525 Z M 56.636031 22.621969 " transform="matrix(1,0,0,-1,51.821,68.829)"/>
<path style="fill-rule:nonzero;fill:rgb(0%,74.508667%,21.961975%);fill-opacity:1;stroke-width:1.59404;stroke-linecap:round;stroke-linejoin:round;stroke:rgb(0%,0%,0%);stroke-opacity:1;stroke-miterlimit:10;" d="M 62.249313 28.23525 L 62.249313 45.243062 L 68.034469 51.024312 L 68.034469 34.0165 Z M 62.249313 28.23525 " transform="matrix(1,0,0,-1,51.821,68.829)"/>
<path style="fill-rule:nonzero;fill:rgb(0%,74.508667%,21.961975%);fill-opacity:1;stroke-width:1.59404;stroke-linecap:round;stroke-linejoin:round;stroke:rgb(0%,0%,0%);stroke-opacity:1;stroke-miterlimit:10;" d="M 51.026656 0.000875 L 51.026656 17.008687 L 56.636031 22.621969 L 56.636031 5.614156 Z M 51.026656 0.000875 " transform="matrix(1,0,0,-1,51.821,68.829)"/>
<path style="fill-rule:nonzero;fill:rgb(0%,74.508667%,21.961975%);fill-opacity:1;stroke-width:1.59404;stroke-linecap:round;stroke-linejoin:round;stroke:rgb(0%,0%,0%);stroke-opacity:1;stroke-miterlimit:10;" d="M 56.636031 5.614156 L 56.636031 22.621969 L 62.249313 28.23525 L 62.249313 11.223531 Z M 56.636031 5.614156 " transform="matrix(1,0,0,-1,51.821,68.829)"/>
<path style="fill-rule:nonzero;fill:rgb(0%,74.508667%,21.961975%);fill-opacity:1;stroke-width:1.59404;stroke-linecap:round;stroke-linejoin:round;stroke:rgb(0%,0%,0%);stroke-opacity:1;stroke-miterlimit:10;" d="M 62.249313 11.223531 L 62.249313 28.23525 L 68.034469 34.0165 L 68.034469 17.008687 Z M 62.249313 11.223531 " transform="matrix(1,0,0,-1,51.821,68.829)"/>
<path style="fill-rule:nonzero;fill:rgb(100%,100%,0%);fill-opacity:1;stroke-width:1.59404;stroke-linecap:round;stroke-linejoin:round;stroke:rgb(0%,0%,0%);stroke-opacity:1;stroke-miterlimit:10;" d="M -0.0006875 -17.006938 L -0.0006875 0.000875 L 17.007125 0.000875 L 17.007125 -17.006938 Z M -0.0006875 -17.006938 " transform="matrix(1,0,0,-1,51.821,68.829)"/>
<path style="fill-rule:nonzero;fill:rgb(100%,100%,0%);fill-opacity:1;stroke-width:1.59404;stroke-linecap:round;stroke-linejoin:round;stroke:rgb(0%,0%,0%);stroke-opacity:1;stroke-miterlimit:10;" d="M 17.007125 -17.006938 L 17.007125 0.000875 L 34.014938 0.000875 L 34.014938 -17.006938 Z M 17.007125 -17.006938 " transform="matrix(1,0,0,-1,51.821,68.829)"/>
<path style="fill-rule:nonzero;fill:rgb(100%,100%,0%);fill-opacity:1;stroke-width:1.59404;stroke-linecap:round;stroke-linejoin:round;stroke:rgb(0%,0%,0%);stroke-opacity:1;stroke-miterlimit:10;" d="M 34.014938 -17.006938 L 34.014938 0.000875 L 51.026656 0.000875 L 51.026656 -17.006938 Z M 34.014938 -17.006938 " transform="matrix(1,0,0,-1,51.821,68.829)"/>
<path style="fill-rule:nonzero;fill:rgb(100%,100%,0%);fill-opacity:1;stroke-width:1.59404;stroke-linecap:round;stroke-linejoin:round;stroke:rgb(0%,0%,0%);stroke-opacity:1;stroke-miterlimit:10;" d="M -0.0006875 -34.01475 L -0.0006875 -17.006938 L 17.007125 -17.006938 L 17.007125 -34.01475 Z M -0.0006875 -34.01475 " transform="matrix(1,0,0,-1,51.821,68.829)"/>
<path style="fill-rule:nonzero;fill:rgb(100%,100%,0%);fill-opacity:1;stroke-width:1.59404;stroke-linecap:round;stroke-linejoin:round;stroke:rgb(0%,0%,0%);stroke-opacity:1;stroke-miterlimit:10;" d="M 17.007125 -34.01475 L 17.007125 -17.006938 L 34.014938 -17.006938 L 34.014938 -34.01475 Z M 17.007125 -34.01475 " transform="matrix(1,0,0,-1,51.821,68.829)"/>
<path style="fill-rule:nonzero;fill:rgb(100%,100%,0%);fill-opacity:1;stroke-width:1.59404;stroke-linecap:round;stroke-linejoin:round;stroke:rgb(0%,0%,0%);stroke-opacity:1;stroke-miterlimit:10;" d="M 34.014938 -34.01475 L 34.014938 -17.006938 L 51.026656 -17.006938 L 51.026656 -34.01475 Z M 34.014938 -34.01475 " transform="matrix(1,0,0,-1,51.821,68.829)"/>
<path style=" stroke:none;fill-rule:nonzero;fill:rgb(100%,100%,0%);fill-opacity:1;" d="M 51.820312 119.855469 L 51.820312 102.84375 L 68.828125 102.84375 L 68.828125 119.855469 Z M 51.820312 119.855469 "/>
<g clip-path="url(#clip1)" clip-rule="nonzero">
<path style="fill:none;stroke-width:1.59404;stroke-linecap:round;stroke-linejoin:round;stroke:rgb(0%,0%,0%);stroke-opacity:1;stroke-miterlimit:10;" d="M -0.0006875 -51.026469 L -0.0006875 -34.01475 L 17.007125 -34.01475 L 17.007125 -51.026469 Z M -0.0006875 -51.026469 " transform="matrix(1,0,0,-1,51.821,68.829)"/>
</g>
<path style=" stroke:none;fill-rule:nonzero;fill:rgb(100%,100%,0%);fill-opacity:1;" d="M 68.828125 119.855469 L 68.828125 102.84375 L 85.835938 102.84375 L 85.835938 119.855469 Z M 68.828125 119.855469 "/>
<g clip-path="url(#clip2)" clip-rule="nonzero">
<path style="fill:none;stroke-width:1.59404;stroke-linecap:round;stroke-linejoin:round;stroke:rgb(0%,0%,0%);stroke-opacity:1;stroke-miterlimit:10;" d="M 17.007125 -51.026469 L 17.007125 -34.01475 L 34.014938 -34.01475 L 34.014938 -51.026469 Z M 17.007125 -51.026469 " transform="matrix(1,0,0,-1,51.821,68.829)"/>
</g>
<path style=" stroke:none;fill-rule:nonzero;fill:rgb(100%,100%,0%);fill-opacity:1;" d="M 85.835938 119.855469 L 85.835938 102.84375 L 102.847656 102.84375 L 102.847656 119.855469 Z M 85.835938 119.855469 "/>
<g clip-path="url(#clip3)" clip-rule="nonzero">
<path style="fill:none;stroke-width:1.59404;stroke-linecap:round;stroke-linejoin:round;stroke:rgb(0%,0%,0%);stroke-opacity:1;stroke-miterlimit:10;" d="M 34.014938 -51.026469 L 34.014938 -34.01475 L 51.026656 -34.01475 L 51.026656 -51.026469 Z M 34.014938 -51.026469 " transform="matrix(1,0,0,-1,51.821,68.829)"/>
</g>
<path style="fill-rule:nonzero;fill:rgb(0%,31.765747%,72.941589%);fill-opacity:1;stroke-width:1.59404;stroke-linecap:round;stroke-linejoin:round;stroke:rgb(0%,0%,0%);stroke-opacity:1;stroke-miterlimit:10;" d="M -51.024125 34.0165 L -51.024125 51.024312 L -34.016312 51.024312 L -34.016312 34.0165 Z M -51.024125 34.0165 " transform="matrix(1,0,0,-1,51.821,68.829)"/>
<path style="fill-rule:nonzero;fill:rgb(0%,31.765747%,72.941589%);fill-opacity:1;stroke-width:1.59404;stroke-linecap:round;stroke-linejoin:round;stroke:rgb(0%,0%,0%);stroke-opacity:1;stroke-miterlimit:10;" d="M -34.016312 34.0165 L -34.016312 51.024312 L -17.0085 51.024312 L -17.0085 34.0165 Z M -34.016312 34.0165 " transform="matrix(1,0,0,-1,51.821,68.829)"/>
<path style="fill-rule:nonzero;fill:rgb(0%,31.765747%,72.941589%);fill-opacity:1;stroke-width:1.59404;stroke-linecap:round;stroke-linejoin:round;stroke:rgb(0%,0%,0%);stroke-opacity:1;stroke-miterlimit:10;" d="M -17.0085 34.0165 L -17.0085 51.024312 L -0.0006875 51.024312 L -0.0006875 34.0165 Z M -17.0085 34.0165 " transform="matrix(1,0,0,-1,51.821,68.829)"/>
<path style="fill-rule:nonzero;fill:rgb(0%,31.765747%,72.941589%);fill-opacity:1;stroke-width:1.59404;stroke-linecap:round;stroke-linejoin:round;stroke:rgb(0%,0%,0%);stroke-opacity:1;stroke-miterlimit:10;" d="M -51.024125 17.008687 L -51.024125 34.0165 L -34.016312 34.0165 L -34.016312 17.008687 Z M -51.024125 17.008687 " transform="matrix(1,0,0,-1,51.821,68.829)"/>
<path style="fill-rule:nonzero;fill:rgb(0%,31.765747%,72.941589%);fill-opacity:1;stroke-width:1.59404;stroke-linecap:round;stroke-linejoin:round;stroke:rgb(0%,0%,0%);stroke-opacity:1;stroke-miterlimit:10;" d="M -34.016312 17.008687 L -34.016312 34.0165 L -17.0085 34.0165 L -17.0085 17.008687 Z M -34.016312 17.008687 " transform="matrix(1,0,0,-1,51.821,68.829)"/>
<path style="fill-rule:nonzero;fill:rgb(0%,31.765747%,72.941589%);fill-opacity:1;stroke-width:1.59404;stroke-linecap:round;stroke-linejoin:round;stroke:rgb(0%,0%,0%);stroke-opacity:1;stroke-miterlimit:10;" d="M -17.0085 17.008687 L -17.0085 34.0165 L -0.0006875 34.0165 L -0.0006875 17.008687 Z M -17.0085 17.008687 " transform="matrix(1,0,0,-1,51.821,68.829)"/>
<path style="fill-rule:nonzero;fill:rgb(0%,31.765747%,72.941589%);fill-opacity:1;stroke-width:1.59404;stroke-linecap:round;stroke-linejoin:round;stroke:rgb(0%,0%,0%);stroke-opacity:1;stroke-miterlimit:10;" d="M -51.024125 0.000875 L -51.024125 17.008687 L -34.016312 17.008687 L -34.016312 0.000875 Z M -51.024125 0.000875 " transform="matrix(1,0,0,-1,51.821,68.829)"/>
<path style="fill-rule:nonzero;fill:rgb(0%,31.765747%,72.941589%);fill-opacity:1;stroke-width:1.59404;stroke-linecap:round;stroke-linejoin:round;stroke:rgb(0%,0%,0%);stroke-opacity:1;stroke-miterlimit:10;" d="M -34.016312 0.000875 L -34.016312 17.008687 L -17.0085 17.008687 L -17.0085 0.000875 Z M -34.016312 0.000875 " transform="matrix(1,0,0,-1,51.821,68.829)"/>
<path style="fill-rule:nonzero;fill:rgb(0%,31.765747%,72.941589%);fill-opacity:1;stroke-width:1.59404;stroke-linecap:round;stroke-linejoin:round;stroke:rgb(0%,0%,0%);stroke-opacity:1;stroke-miterlimit:10;" d="M -17.0085 0.000875 L -17.0085 17.008687 L -0.0006875 17.008687 L -0.0006875 0.000875 Z M -17.0085 0.000875 " transform="matrix(1,0,0,-1,51.821,68.829)"/>
<path style="fill-rule:nonzero;fill:rgb(76.861572%,11.764526%,19.999695%);fill-opacity:1;stroke-width:1.59404;stroke-linecap:round;stroke-linejoin:round;stroke:rgb(0%,0%,0%);stroke-opacity:1;stroke-miterlimit:10;" d="M 68.034469 51.024312 L 68.034469 68.032125 L 85.042281 68.032125 L 85.042281 51.024312 Z M 68.034469 51.024312 " transform="matrix(1,0,0,-1,51.821,68.829)"/>
<path style="fill-rule:nonzero;fill:rgb(76.861572%,11.764526%,19.999695%);fill-opacity:1;stroke-width:1.59404;stroke-linecap:round;stroke-linejoin:round;stroke:rgb(0%,0%,0%);stroke-opacity:1;stroke-miterlimit:10;" d="M 85.042281 51.024312 L 85.042281 68.032125 L 102.050094 68.032125 L 102.050094 51.024312 Z M 85.042281 51.024312 " transform="matrix(1,0,0,-1,51.821,68.829)"/>
<path style=" stroke:none;fill-rule:nonzero;fill:rgb(76.861572%,11.764526%,19.999695%);fill-opacity:1;" d="M 153.871094 17.804688 L 153.871094 0.796875 L 170.878906 0.796875 L 170.878906 17.804688 Z M 153.871094 17.804688 "/>
<g clip-path="url(#clip4)" clip-rule="nonzero">
<path style="fill:none;stroke-width:1.59404;stroke-linecap:round;stroke-linejoin:round;stroke:rgb(0%,0%,0%);stroke-opacity:1;stroke-miterlimit:10;" d="M 102.050094 51.024312 L 102.050094 68.032125 L 119.057906 68.032125 L 119.057906 51.024312 Z M 102.050094 51.024312 " transform="matrix(1,0,0,-1,51.821,68.829)"/>
</g>
<path style="fill-rule:nonzero;fill:rgb(76.861572%,11.764526%,19.999695%);fill-opacity:1;stroke-width:1.59404;stroke-linecap:round;stroke-linejoin:round;stroke:rgb(0%,0%,0%);stroke-opacity:1;stroke-miterlimit:10;" d="M 68.034469 34.0165 L 68.034469 51.024312 L 85.042281 51.024312 L 85.042281 34.0165 Z M 68.034469 34.0165 " transform="matrix(1,0,0,-1,51.821,68.829)"/>
<path style="fill-rule:nonzero;fill:rgb(76.861572%,11.764526%,19.999695%);fill-opacity:1;stroke-width:1.59404;stroke-linecap:round;stroke-linejoin:round;stroke:rgb(0%,0%,0%);stroke-opacity:1;stroke-miterlimit:10;" d="M 85.042281 34.0165 L 85.042281 51.024312 L 102.050094 51.024312 L 102.050094 34.0165 Z M 85.042281 34.0165 " transform="matrix(1,0,0,-1,51.821,68.829)"/>
<path style=" stroke:none;fill-rule:nonzero;fill:rgb(76.861572%,11.764526%,19.999695%);fill-opacity:1;" d="M 153.871094 34.8125 L 153.871094 17.804688 L 170.878906 17.804688 L 170.878906 34.8125 Z M 153.871094 34.8125 "/>
<g clip-path="url(#clip5)" clip-rule="nonzero">
<path style="fill:none;stroke-width:1.59404;stroke-linecap:round;stroke-linejoin:round;stroke:rgb(0%,0%,0%);stroke-opacity:1;stroke-miterlimit:10;" d="M 102.050094 34.0165 L 102.050094 51.024312 L 119.057906 51.024312 L 119.057906 34.0165 Z M 102.050094 34.0165 " transform="matrix(1,0,0,-1,51.821,68.829)"/>
</g>
<path style="fill-rule:nonzero;fill:rgb(76.861572%,11.764526%,19.999695%);fill-opacity:1;stroke-width:1.59404;stroke-linecap:round;stroke-linejoin:round;stroke:rgb(0%,0%,0%);stroke-opacity:1;stroke-miterlimit:10;" d="M 68.034469 17.008687 L 68.034469 34.0165 L 85.042281 34.0165 L 85.042281 17.008687 Z M 68.034469 17.008687 " transform="matrix(1,0,0,-1,51.821,68.829)"/>
<path style="fill-rule:nonzero;fill:rgb(76.861572%,11.764526%,19.999695%);fill-opacity:1;stroke-width:1.59404;stroke-linecap:round;stroke-linejoin:round;stroke:rgb(0%,0%,0%);stroke-opacity:1;stroke-miterlimit:10;" d="M 85.042281 17.008687 L 85.042281 34.0165 L 102.050094 34.0165 L 102.050094 17.008687 Z M 85.042281 17.008687 " transform="matrix(1,0,0,-1,51.821,68.829)"/>
<path style=" stroke:none;fill-rule:nonzero;fill:rgb(76.861572%,11.764526%,19.999695%);fill-opacity:1;" d="M 153.871094 51.820312 L 153.871094 34.8125 L 170.878906 34.8125 L 170.878906 51.820312 Z M 153.871094 51.820312 "/>
<g clip-path="url(#clip6)" clip-rule="nonzero">
<path style="fill:none;stroke-width:1.59404;stroke-linecap:round;stroke-linejoin:round;stroke:rgb(0%,0%,0%);stroke-opacity:1;stroke-miterlimit:10;" d="M 102.050094 17.008687 L 102.050094 34.0165 L 119.057906 34.0165 L 119.057906 17.008687 Z M 102.050094 17.008687 " transform="matrix(1,0,0,-1,51.821,68.829)"/>
</g>
</g>
</svg>
