<?xml version="1.0" encoding="UTF-8"?>
<svg xmlns="http://www.w3.org/2000/svg" xmlns:xlink="http://www.w3.org/1999/xlink" width="218.974pt" height="40.392pt" viewBox="0 0 218.974 40.392" version="1.1">
<defs>
<clipPath id="clip1">
  <path d="M 0 34 L 7 34 L 7 40.390625 L 0 40.390625 Z M 0 34 "/>
</clipPath>
<clipPath id="clip2">
  <path d="M 0 28 L 12 28 L 12 40.390625 L 0 40.390625 Z M 0 28 "/>
</clipPath>
<clipPath id="clip3">
  <path d="M 56 22 L 78 22 L 78 40.390625 L 56 40.390625 Z M 56 22 "/>
</clipPath>
<clipPath id="clip4">
  <path d="M 51 17 L 83 17 L 83 40.390625 L 51 40.390625 Z M 51 17 "/>
</clipPath>
<clipPath id="clip5">
  <path d="M 113 11 L 148 11 L 148 40.390625 L 113 40.390625 Z M 113 11 "/>
</clipPath>
<clipPath id="clip6">
  <path d="M 107 5 L 154 5 L 154 40.390625 L 107 40.390625 Z M 107 5 "/>
</clipPath>
<clipPath id="clip7">
  <path d="M 170 0 L 218.972656 0 L 218.972656 40.390625 L 170 40.390625 Z M 170 0 "/>
</clipPath>
<clipPath id="clip8">
  <path d="M 164 0 L 218.972656 0 L 218.972656 40.390625 L 164 40.390625 Z M 164 0 "/>
</clipPath>
</defs>
<g id="surface1">
<g clip-path="url(#clip1)" clip-rule="nonzero">
<path style=" stroke:none;fill-rule:nonzero;fill:rgb(0%,0%,0%);fill-opacity:1;" d="M 6.175781 37.203125 C 6.175781 35.554688 4.839844 34.214844 3.1875 34.214844 C 1.535156 34.214844 0.199219 35.554688 0.199219 37.203125 C 0.199219 38.855469 1.535156 40.191406 3.1875 40.191406 C 4.839844 40.191406 6.175781 38.855469 6.175781 37.203125 Z M 6.175781 37.203125 "/>
</g>
<g clip-path="url(#clip2)" clip-rule="nonzero">
<path style="fill:none;stroke-width:0.3985;stroke-linecap:butt;stroke-linejoin:miter;stroke:rgb(0%,0%,0%);stroke-opacity:1;stroke-miterlimit:10;" d="M -53.705219 0.000875 C -53.705219 1.649313 -55.041156 2.989156 -56.6935 2.989156 C -58.345844 2.989156 -59.681781 1.649313 -59.681781 0.000875 C -59.681781 -1.651469 -58.345844 -2.987406 -56.6935 -2.987406 C -55.041156 -2.987406 -53.705219 -1.651469 -53.705219 0.000875 Z M -53.705219 0.000875 " transform="matrix(1,0,0,-1,59.881,37.204)"/>
</g>
<g clip-path="url(#clip3)" clip-rule="nonzero">
<path style=" stroke:none;fill-rule:nonzero;fill:rgb(0%,0%,0%);fill-opacity:1;" d="M 62.871094 37.203125 C 62.871094 35.554688 61.53125 34.214844 59.882812 34.214844 C 58.230469 34.214844 56.890625 35.554688 56.890625 37.203125 C 56.890625 38.855469 58.230469 40.191406 59.882812 40.191406 C 61.53125 40.191406 62.871094 38.855469 62.871094 37.203125 Z M 77.042969 37.203125 C 77.042969 35.554688 75.707031 34.214844 74.054688 34.214844 C 72.402344 34.214844 71.066406 35.554688 71.066406 37.203125 C 71.066406 38.855469 72.402344 40.191406 74.054688 40.191406 C 75.707031 40.191406 77.042969 38.855469 77.042969 37.203125 Z M 69.957031 25.867188 C 69.957031 24.214844 68.617188 22.875 66.96875 22.875 C 65.316406 22.875 63.980469 24.214844 63.980469 25.867188 C 63.980469 27.515625 65.316406 28.855469 66.96875 28.855469 C 68.617188 28.855469 69.957031 27.515625 69.957031 25.867188 Z M 69.957031 25.867188 "/>
</g>
<g clip-path="url(#clip4)" clip-rule="nonzero">
<path style="fill:none;stroke-width:0.3985;stroke-linecap:butt;stroke-linejoin:miter;stroke:rgb(0%,0%,0%);stroke-opacity:1;stroke-miterlimit:10;" d="M 2.990094 0.000875 C 2.990094 1.649313 1.65025 2.989156 0.0018125 2.989156 C -1.650531 2.989156 -2.990375 1.649313 -2.990375 0.000875 C -2.990375 -1.651469 -1.650531 -2.987406 0.0018125 -2.987406 C 1.65025 -2.987406 2.990094 -1.651469 2.990094 0.000875 Z M 17.161969 0.000875 C 17.161969 1.649313 15.826031 2.989156 14.173688 2.989156 C 12.521344 2.989156 11.185406 1.649313 11.185406 0.000875 C 11.185406 -1.651469 12.521344 -2.987406 14.173688 -2.987406 C 15.826031 -2.987406 17.161969 -1.651469 17.161969 0.000875 Z M 10.076031 11.336813 C 10.076031 12.989156 8.736188 14.329 7.08775 14.329 C 5.435406 14.329 4.099469 12.989156 4.099469 11.336813 C 4.099469 9.688375 5.435406 8.348531 7.08775 8.348531 C 8.736188 8.348531 10.076031 9.688375 10.076031 11.336813 Z M 10.076031 11.336813 " transform="matrix(1,0,0,-1,59.881,37.204)"/>
</g>
<g clip-path="url(#clip5)" clip-rule="nonzero">
<path style=" stroke:none;fill-rule:nonzero;fill:rgb(0%,0%,0%);fill-opacity:1;" d="M 119.5625 37.203125 C 119.5625 35.554688 118.226562 34.214844 116.574219 34.214844 C 114.925781 34.214844 113.585938 35.554688 113.585938 37.203125 C 113.585938 38.855469 114.925781 40.191406 116.574219 40.191406 C 118.226562 40.191406 119.5625 38.855469 119.5625 37.203125 Z M 133.738281 37.203125 C 133.738281 35.554688 132.398438 34.214844 130.746094 34.214844 C 129.097656 34.214844 127.757812 35.554688 127.757812 37.203125 C 127.757812 38.855469 129.097656 40.191406 130.746094 40.191406 C 132.398438 40.191406 133.738281 38.855469 133.738281 37.203125 Z M 126.648438 25.867188 C 126.648438 24.214844 125.3125 22.875 123.660156 22.875 C 122.011719 22.875 120.671875 24.214844 120.671875 25.867188 C 120.671875 27.515625 122.011719 28.855469 123.660156 28.855469 C 125.3125 28.855469 126.648438 27.515625 126.648438 25.867188 Z M 147.910156 37.203125 C 147.910156 35.554688 146.570312 34.214844 144.921875 34.214844 C 143.269531 34.214844 141.933594 35.554688 141.933594 37.203125 C 141.933594 38.855469 143.269531 40.191406 144.921875 40.191406 C 146.570312 40.191406 147.910156 38.855469 147.910156 37.203125 Z M 140.824219 25.867188 C 140.824219 24.214844 139.484375 22.875 137.835938 22.875 C 136.183594 22.875 134.847656 24.214844 134.847656 25.867188 C 134.847656 27.515625 136.183594 28.855469 137.835938 28.855469 C 139.484375 28.855469 140.824219 27.515625 140.824219 25.867188 Z M 133.738281 14.527344 C 133.738281 12.875 132.398438 11.539062 130.746094 11.539062 C 129.097656 11.539062 127.757812 12.875 127.757812 14.527344 C 127.757812 16.175781 129.097656 17.515625 130.746094 17.515625 C 132.398438 17.515625 133.738281 16.175781 133.738281 14.527344 Z M 133.738281 14.527344 "/>
</g>
<g clip-path="url(#clip6)" clip-rule="nonzero">
<path style="fill:none;stroke-width:0.3985;stroke-linecap:butt;stroke-linejoin:miter;stroke:rgb(0%,0%,0%);stroke-opacity:1;stroke-miterlimit:10;" d="M 59.6815 0.000875 C 59.6815 1.649313 58.345563 2.989156 56.693219 2.989156 C 55.044781 2.989156 53.704938 1.649313 53.704938 0.000875 C 53.704938 -1.651469 55.044781 -2.987406 56.693219 -2.987406 C 58.345563 -2.987406 59.6815 -1.651469 59.6815 0.000875 Z M 73.857281 0.000875 C 73.857281 1.649313 72.517437 2.989156 70.865094 2.989156 C 69.216656 2.989156 67.876812 1.649313 67.876812 0.000875 C 67.876812 -1.651469 69.216656 -2.987406 70.865094 -2.987406 C 72.517437 -2.987406 73.857281 -1.651469 73.857281 0.000875 Z M 66.767437 11.336813 C 66.767437 12.989156 65.4315 14.329 63.779156 14.329 C 62.130719 14.329 60.790875 12.989156 60.790875 11.336813 C 60.790875 9.688375 62.130719 8.348531 63.779156 8.348531 C 65.4315 8.348531 66.767437 9.688375 66.767437 11.336813 Z M 88.029156 0.000875 C 88.029156 1.649313 86.689312 2.989156 85.040875 2.989156 C 83.388531 2.989156 82.052594 1.649313 82.052594 0.000875 C 82.052594 -1.651469 83.388531 -2.987406 85.040875 -2.987406 C 86.689312 -2.987406 88.029156 -1.651469 88.029156 0.000875 Z M 80.943219 11.336813 C 80.943219 12.989156 79.603375 14.329 77.954937 14.329 C 76.302594 14.329 74.966656 12.989156 74.966656 11.336813 C 74.966656 9.688375 76.302594 8.348531 77.954937 8.348531 C 79.603375 8.348531 80.943219 9.688375 80.943219 11.336813 Z M 73.857281 22.676656 C 73.857281 24.329 72.517437 25.664938 70.865094 25.664938 C 69.216656 25.664938 67.876812 24.329 67.876812 22.676656 C 67.876812 21.028219 69.216656 19.688375 70.865094 19.688375 C 72.517437 19.688375 73.857281 21.028219 73.857281 22.676656 Z M 73.857281 22.676656 " transform="matrix(1,0,0,-1,59.881,37.204)"/>
</g>
<g clip-path="url(#clip7)" clip-rule="nonzero">
<path style=" stroke:none;fill-rule:nonzero;fill:rgb(0%,0%,0%);fill-opacity:1;" d="M 176.257812 37.203125 C 176.257812 35.554688 174.917969 34.214844 173.269531 34.214844 C 171.617188 34.214844 170.28125 35.554688 170.28125 37.203125 C 170.28125 38.855469 171.617188 40.191406 173.269531 40.191406 C 174.917969 40.191406 176.257812 38.855469 176.257812 37.203125 Z M 190.429688 37.203125 C 190.429688 35.554688 189.09375 34.214844 187.441406 34.214844 C 185.789062 34.214844 184.453125 35.554688 184.453125 37.203125 C 184.453125 38.855469 185.789062 40.191406 187.441406 40.191406 C 189.09375 40.191406 190.429688 38.855469 190.429688 37.203125 Z M 183.34375 25.867188 C 183.34375 24.214844 182.003906 22.875 180.355469 22.875 C 178.703125 22.875 177.367188 24.214844 177.367188 25.867188 C 177.367188 27.515625 178.703125 28.855469 180.355469 28.855469 C 182.003906 28.855469 183.34375 27.515625 183.34375 25.867188 Z M 204.605469 37.203125 C 204.605469 35.554688 203.265625 34.214844 201.613281 34.214844 C 199.964844 34.214844 198.625 35.554688 198.625 37.203125 C 198.625 38.855469 199.964844 40.191406 201.613281 40.191406 C 203.265625 40.191406 204.605469 38.855469 204.605469 37.203125 Z M 197.515625 25.867188 C 197.515625 24.214844 196.179688 22.875 194.527344 22.875 C 192.878906 22.875 191.539062 24.214844 191.539062 25.867188 C 191.539062 27.515625 192.878906 28.855469 194.527344 28.855469 C 196.179688 28.855469 197.515625 27.515625 197.515625 25.867188 Z M 190.429688 14.527344 C 190.429688 12.875 189.09375 11.539062 187.441406 11.539062 C 185.789062 11.539062 184.453125 12.875 184.453125 14.527344 C 184.453125 16.175781 185.789062 17.515625 187.441406 17.515625 C 189.09375 17.515625 190.429688 16.175781 190.429688 14.527344 Z M 218.777344 37.203125 C 218.777344 35.554688 217.4375 34.214844 215.789062 34.214844 C 214.136719 34.214844 212.800781 35.554688 212.800781 37.203125 C 212.800781 38.855469 214.136719 40.191406 215.789062 40.191406 C 217.4375 40.191406 218.777344 38.855469 218.777344 37.203125 Z M 211.691406 25.867188 C 211.691406 24.214844 210.351562 22.875 208.703125 22.875 C 207.050781 22.875 205.714844 24.214844 205.714844 25.867188 C 205.714844 27.515625 207.050781 28.855469 208.703125 28.855469 C 210.351562 28.855469 211.691406 27.515625 211.691406 25.867188 Z M 204.605469 14.527344 C 204.605469 12.875 203.265625 11.539062 201.613281 11.539062 C 199.964844 11.539062 198.625 12.875 198.625 14.527344 C 198.625 16.175781 199.964844 17.515625 201.613281 17.515625 C 203.265625 17.515625 204.605469 16.175781 204.605469 14.527344 Z M 197.515625 3.1875 C 197.515625 1.539062 196.179688 0.199219 194.527344 0.199219 C 192.878906 0.199219 191.539062 1.539062 191.539062 3.1875 C 191.539062 4.839844 192.878906 6.175781 194.527344 6.175781 C 196.179688 6.175781 197.515625 4.839844 197.515625 3.1875 Z M 197.515625 3.1875 "/>
</g>
<g clip-path="url(#clip8)" clip-rule="nonzero">
<path style="fill:none;stroke-width:0.3985;stroke-linecap:butt;stroke-linejoin:miter;stroke:rgb(0%,0%,0%);stroke-opacity:1;stroke-miterlimit:10;" d="M 116.376812 0.000875 C 116.376812 1.649313 115.036969 2.989156 113.388531 2.989156 C 111.736187 2.989156 110.40025 1.649313 110.40025 0.000875 C 110.40025 -1.651469 111.736187 -2.987406 113.388531 -2.987406 C 115.036969 -2.987406 116.376812 -1.651469 116.376812 0.000875 Z M 130.548687 0.000875 C 130.548687 1.649313 129.21275 2.989156 127.560406 2.989156 C 125.908062 2.989156 124.572125 1.649313 124.572125 0.000875 C 124.572125 -1.651469 125.908062 -2.987406 127.560406 -2.987406 C 129.21275 -2.987406 130.548687 -1.651469 130.548687 0.000875 Z M 123.46275 11.336813 C 123.46275 12.989156 122.122906 14.329 120.474469 14.329 C 118.822125 14.329 117.486187 12.989156 117.486187 11.336813 C 117.486187 9.688375 118.822125 8.348531 120.474469 8.348531 C 122.122906 8.348531 123.46275 9.688375 123.46275 11.336813 Z M 144.724469 0.000875 C 144.724469 1.649313 143.384625 2.989156 141.732281 2.989156 C 140.083844 2.989156 138.744 1.649313 138.744 0.000875 C 138.744 -1.651469 140.083844 -2.987406 141.732281 -2.987406 C 143.384625 -2.987406 144.724469 -1.651469 144.724469 0.000875 Z M 137.634625 11.336813 C 137.634625 12.989156 136.298687 14.329 134.646344 14.329 C 132.997906 14.329 131.658062 12.989156 131.658062 11.336813 C 131.658062 9.688375 132.997906 8.348531 134.646344 8.348531 C 136.298687 8.348531 137.634625 9.688375 137.634625 11.336813 Z M 130.548687 22.676656 C 130.548687 24.329 129.21275 25.664938 127.560406 25.664938 C 125.908062 25.664938 124.572125 24.329 124.572125 22.676656 C 124.572125 21.028219 125.908062 19.688375 127.560406 19.688375 C 129.21275 19.688375 130.548687 21.028219 130.548687 22.676656 Z M 158.896344 0.000875 C 158.896344 1.649313 157.5565 2.989156 155.908062 2.989156 C 154.255719 2.989156 152.919781 1.649313 152.919781 0.000875 C 152.919781 -1.651469 154.255719 -2.987406 155.908062 -2.987406 C 157.5565 -2.987406 158.896344 -1.651469 158.896344 0.000875 Z M 151.810406 11.336813 C 151.810406 12.989156 150.470562 14.329 148.822125 14.329 C 147.169781 14.329 145.833844 12.989156 145.833844 11.336813 C 145.833844 9.688375 147.169781 8.348531 148.822125 8.348531 C 150.470562 8.348531 151.810406 9.688375 151.810406 11.336813 Z M 144.724469 22.676656 C 144.724469 24.329 143.384625 25.664938 141.732281 25.664938 C 140.083844 25.664938 138.744 24.329 138.744 22.676656 C 138.744 21.028219 140.083844 19.688375 141.732281 19.688375 C 143.384625 19.688375 144.724469 21.028219 144.724469 22.676656 Z M 137.634625 34.0165 C 137.634625 35.664938 136.298687 37.004781 134.646344 37.004781 C 132.997906 37.004781 131.658062 35.664938 131.658062 34.0165 C 131.658062 32.364156 132.997906 31.028219 134.646344 31.028219 C 136.298687 31.028219 137.634625 32.364156 137.634625 34.0165 Z M 137.634625 34.0165 " transform="matrix(1,0,0,-1,59.881,37.204)"/>
</g>
</g>
</svg>
