<?xml version="1.0" encoding="UTF-8"?>
<svg xmlns="http://www.w3.org/2000/svg" xmlns:xlink="http://www.w3.org/1999/xlink" width="136.77pt" height="40.392pt" viewBox="0 0 136.77 40.392" version="1.1">
<defs>
<clipPath id="clip1">
  <path d="M 96 0 L 136.769531 0 L 136.769531 40.390625 L 96 40.390625 Z M 96 0 "/>
</clipPath>
<clipPath id="clip2">
  <path d="M 90 0 L 136.769531 0 L 136.769531 40.390625 L 90 40.390625 Z M 90 0 "/>
</clipPath>
</defs>
<g id="surface1">
<path style="fill-rule:nonzero;fill:rgb(0%,0%,0%);fill-opacity:1;stroke-width:0.3985;stroke-linecap:butt;stroke-linejoin:miter;stroke:rgb(0%,0%,0%);stroke-opacity:1;stroke-miterlimit:10;" d="M -53.705219 0.0006875 C -53.705219 1.649125 -55.041156 2.988969 -56.6935 2.988969 C -58.345844 2.988969 -59.681781 1.649125 -59.681781 0.0006875 C -59.681781 -1.651656 -58.345844 -2.987594 -56.6935 -2.987594 C -55.041156 -2.987594 -53.705219 -1.651656 -53.705219 0.0006875 Z M -53.705219 0.0006875 " transform="matrix(1,0,0,-1,59.881,20.196)"/>
<path style="fill-rule:nonzero;fill:rgb(0%,0%,0%);fill-opacity:1;stroke-width:0.3985;stroke-linecap:butt;stroke-linejoin:miter;stroke:rgb(0%,0%,0%);stroke-opacity:1;stroke-miterlimit:10;" d="M 2.990094 0.0006875 C 2.990094 1.649125 1.65025 2.988969 0.0018125 2.988969 C -1.650531 2.988969 -2.990375 1.649125 -2.990375 0.0006875 C -2.990375 -1.651656 -1.650531 -2.987594 0.0018125 -2.987594 C 1.65025 -2.987594 2.990094 -1.651656 2.990094 0.0006875 Z M 11.494 8.504594 C 11.494 10.153031 10.154156 11.492875 8.505719 11.492875 C 6.853375 11.492875 5.513531 10.153031 5.513531 8.504594 C 5.513531 6.85225 6.853375 5.516313 8.505719 5.516313 C 10.154156 5.516313 11.494 6.85225 11.494 8.504594 Z M -5.513812 -8.503219 C -5.513812 -6.854781 -6.853656 -5.514937 -8.506 -5.514937 C -10.154437 -5.514937 -11.494281 -6.854781 -11.494281 -8.503219 C -11.494281 -10.155562 -10.154437 -11.4915 -8.506 -11.4915 C -6.853656 -11.4915 -5.513812 -10.155562 -5.513812 -8.503219 Z M -5.513812 8.504594 C -5.513812 10.153031 -6.853656 11.492875 -8.506 11.492875 C -10.154437 11.492875 -11.494281 10.153031 -11.494281 8.504594 C -11.494281 6.85225 -10.154437 5.516313 -8.506 5.516313 C -6.853656 5.516313 -5.513812 6.85225 -5.513812 8.504594 Z M 11.494 -8.503219 C 11.494 -6.854781 10.154156 -5.514937 8.505719 -5.514937 C 6.853375 -5.514937 5.513531 -6.854781 5.513531 -8.503219 C 5.513531 -10.155562 6.853375 -11.4915 8.505719 -11.4915 C 10.154156 -11.4915 11.494 -10.155562 11.494 -8.503219 Z M 11.494 -8.503219 " transform="matrix(1,0,0,-1,59.881,20.196)"/>
<g clip-path="url(#clip1)" clip-rule="nonzero">
<path style=" stroke:none;fill-rule:nonzero;fill:rgb(0%,0%,0%);fill-opacity:1;" d="M 119.5625 20.195312 C 119.5625 18.546875 118.226562 17.207031 116.574219 17.207031 C 114.925781 17.207031 113.585938 18.546875 113.585938 20.195312 C 113.585938 21.847656 114.925781 23.183594 116.574219 23.183594 C 118.226562 23.183594 119.5625 21.847656 119.5625 20.195312 Z M 128.066406 11.691406 C 128.066406 10.042969 126.730469 8.703125 125.078125 8.703125 C 123.429688 8.703125 122.089844 10.042969 122.089844 11.691406 C 122.089844 13.34375 123.429688 14.679688 125.078125 14.679688 C 126.730469 14.679688 128.066406 13.34375 128.066406 11.691406 Z M 111.058594 28.699219 C 111.058594 27.050781 109.722656 25.710938 108.070312 25.710938 C 106.417969 25.710938 105.082031 27.050781 105.082031 28.699219 C 105.082031 30.351562 106.417969 31.6875 108.070312 31.6875 C 109.722656 31.6875 111.058594 30.351562 111.058594 28.699219 Z M 111.058594 11.691406 C 111.058594 10.042969 109.722656 8.703125 108.070312 8.703125 C 106.417969 8.703125 105.082031 10.042969 105.082031 11.691406 C 105.082031 13.34375 106.417969 14.679688 108.070312 14.679688 C 109.722656 14.679688 111.058594 13.34375 111.058594 11.691406 Z M 128.066406 28.699219 C 128.066406 27.050781 126.730469 25.710938 125.078125 25.710938 C 123.429688 25.710938 122.089844 27.050781 122.089844 28.699219 C 122.089844 30.351562 123.429688 31.6875 125.078125 31.6875 C 126.730469 31.6875 128.066406 30.351562 128.066406 28.699219 Z M 136.570312 3.1875 C 136.570312 1.535156 135.234375 0.199219 133.582031 0.199219 C 131.933594 0.199219 130.59375 1.535156 130.59375 3.1875 C 130.59375 4.839844 131.933594 6.175781 133.582031 6.175781 C 135.234375 6.175781 136.570312 4.839844 136.570312 3.1875 Z M 136.570312 37.203125 C 136.570312 35.554688 135.234375 34.214844 133.582031 34.214844 C 131.933594 34.214844 130.59375 35.554688 130.59375 37.203125 C 130.59375 38.855469 131.933594 40.191406 133.582031 40.191406 C 135.234375 40.191406 136.570312 38.855469 136.570312 37.203125 Z M 102.554688 3.1875 C 102.554688 1.535156 101.21875 0.199219 99.566406 0.199219 C 97.914062 0.199219 96.578125 1.535156 96.578125 3.1875 C 96.578125 4.839844 97.914062 6.175781 99.566406 6.175781 C 101.21875 6.175781 102.554688 4.839844 102.554688 3.1875 Z M 102.554688 37.203125 C 102.554688 35.554688 101.21875 34.214844 99.566406 34.214844 C 97.914062 34.214844 96.578125 35.554688 96.578125 37.203125 C 96.578125 38.855469 97.914062 40.191406 99.566406 40.191406 C 101.21875 40.191406 102.554688 38.855469 102.554688 37.203125 Z M 102.554688 37.203125 "/>
</g>
<g clip-path="url(#clip2)" clip-rule="nonzero">
<path style="fill:none;stroke-width:0.3985;stroke-linecap:butt;stroke-linejoin:miter;stroke:rgb(0%,0%,0%);stroke-opacity:1;stroke-miterlimit:10;" d="M 59.6815 0.0006875 C 59.6815 1.649125 58.345563 2.988969 56.693219 2.988969 C 55.044781 2.988969 53.704938 1.649125 53.704938 0.0006875 C 53.704938 -1.651656 55.044781 -2.987594 56.693219 -2.987594 C 58.345563 -2.987594 59.6815 -1.651656 59.6815 0.0006875 Z M 68.185406 8.504594 C 68.185406 10.153031 66.849469 11.492875 65.197125 11.492875 C 63.548688 11.492875 62.208844 10.153031 62.208844 8.504594 C 62.208844 6.85225 63.548688 5.516313 65.197125 5.516313 C 66.849469 5.516313 68.185406 6.85225 68.185406 8.504594 Z M 51.177594 -8.503219 C 51.177594 -6.854781 49.841656 -5.514937 48.189313 -5.514937 C 46.536969 -5.514937 45.201031 -6.854781 45.201031 -8.503219 C 45.201031 -10.155562 46.536969 -11.4915 48.189313 -11.4915 C 49.841656 -11.4915 51.177594 -10.155562 51.177594 -8.503219 Z M 51.177594 8.504594 C 51.177594 10.153031 49.841656 11.492875 48.189313 11.492875 C 46.536969 11.492875 45.201031 10.153031 45.201031 8.504594 C 45.201031 6.85225 46.536969 5.516313 48.189313 5.516313 C 49.841656 5.516313 51.177594 6.85225 51.177594 8.504594 Z M 68.185406 -8.503219 C 68.185406 -6.854781 66.849469 -5.514937 65.197125 -5.514937 C 63.548688 -5.514937 62.208844 -6.854781 62.208844 -8.503219 C 62.208844 -10.155562 63.548688 -11.4915 65.197125 -11.4915 C 66.849469 -11.4915 68.185406 -10.155562 68.185406 -8.503219 Z M 76.689312 17.0085 C 76.689312 18.660844 75.353375 19.996781 73.701031 19.996781 C 72.052594 19.996781 70.71275 18.660844 70.71275 17.0085 C 70.71275 15.356156 72.052594 14.020219 73.701031 14.020219 C 75.353375 14.020219 76.689312 15.356156 76.689312 17.0085 Z M 76.689312 -17.007125 C 76.689312 -15.358687 75.353375 -14.018844 73.701031 -14.018844 C 72.052594 -14.018844 70.71275 -15.358687 70.71275 -17.007125 C 70.71275 -18.659469 72.052594 -19.995406 73.701031 -19.995406 C 75.353375 -19.995406 76.689312 -18.659469 76.689312 -17.007125 Z M 42.673688 17.0085 C 42.673688 18.660844 41.33775 19.996781 39.685406 19.996781 C 38.033063 19.996781 36.697125 18.660844 36.697125 17.0085 C 36.697125 15.356156 38.033063 14.020219 39.685406 14.020219 C 41.33775 14.020219 42.673688 15.356156 42.673688 17.0085 Z M 42.673688 -17.007125 C 42.673688 -15.358687 41.33775 -14.018844 39.685406 -14.018844 C 38.033063 -14.018844 36.697125 -15.358687 36.697125 -17.007125 C 36.697125 -18.659469 38.033063 -19.995406 39.685406 -19.995406 C 41.33775 -19.995406 42.673688 -18.659469 42.673688 -17.007125 Z M 42.673688 -17.007125 " transform="matrix(1,0,0,-1,59.881,20.196)"/>
</g>
</g>
</svg>
